<?xml version="1.0" standalone="no"?>
<!DOCTYPE svg PUBLIC "-//W3C//DTD SVG 20010904//EN"
 "http://www.w3.org/TR/2001/REC-SVG-20010904/DTD/svg10.dtd">
<svg version="1.0" xmlns="http://www.w3.org/2000/svg"
 width="387.000000pt" height="455.000000pt" viewBox="0 0 387.000000 455.000000"
 preserveAspectRatio="xMidYMid meet">
<metadata>
Created by potrace 1.15, written by Peter Selinger 2001-2017
</metadata>
<g transform="translate(0.000000,455.000000) scale(0.100000,-0.100000)"
fill="#000000" stroke="none">
<path d="M1141 4535 c-211 -59 -384 -253 -446 -498 l-23 -92 -72 -7 c-258 -23
-474 -204 -566 -473 -36 -105 -45 -294 -20 -408 16 -72 64 -182 105 -241 20
-29 20 -30 1 -57 -38 -52 -90 -173 -106 -247 -22 -98 -15 -299 14 -388 26 -81
82 -186 137 -257 106 -135 308 -236 470 -237 l40 0 13 -66 c38 -200 181 -400
345 -483 301 -153 646 12 782 372 56 151 56 143 53 1378 l-3 1134 -28 90 c-72
230 -220 402 -399 465 -83 29 -223 36 -297 15z m203 -181 c14 -5 16 -61 16
-524 l0 -518 -34 -26 c-19 -14 -38 -35 -41 -46 -6 -19 -15 -20 -131 -20 l-124
0 0 64 c0 62 1 66 31 83 60 35 85 125 55 196 -36 85 -143 117 -233 69 -85 -46
-84 -212 2 -268 22 -15 25 -23 25 -80 l0 -64 -366 0 -367 0 7 61 c28 245 196
433 422 469 66 11 129 4 229 -25 19 -6 20 -1 21 97 1 122 21 205 72 302 76
146 204 236 334 236 36 0 73 -3 82 -6z m264 -231 c18 -34 41 -96 52 -139 19
-72 20 -112 20 -606 l0 -528 -346 0 -346 0 -37 42 c-36 40 -41 42 -102 45 -51
3 -70 0 -97 -16 -101 -64 -96 -221 8 -273 71 -36 166 -13 205 49 l20 32 348 1
347 0 0 -405 0 -405 -122 0 -123 0 -17 30 c-55 96 -209 93 -265 -6 -42 -74
-22 -166 47 -212 30 -20 44 -23 99 -20 60 4 66 7 103 46 l39 42 119 0 120 0 0
-67 c-1 -206 -120 -417 -277 -491 -77 -36 -193 -38 -266 -5 -97 45 -198 165
-243 289 -23 63 -24 73 -24 414 l0 350 153 0 154 0 11 -25 c18 -39 69 -65 130
-65 97 0 156 59 156 157 0 153 -192 210 -285 84 l-23 -31 -208 0 -208 0 -2
-292 -3 -293 -95 0 c-89 0 -100 3 -174 38 -211 101 -332 351 -282 587 23 107
75 208 145 277 l58 58 -62 67 c-60 63 -114 155 -130 221 l-7 27 106 0 106 0 0
-374 0 -375 -29 -17 c-87 -51 -94 -188 -12 -256 67 -57 186 -39 231 34 42 70
17 191 -45 220 l-25 11 0 379 0 378 370 0 370 0 43 -45 c42 -43 46 -45 103
-45 69 0 114 22 144 72 40 67 17 173 -47 210 l-33 20 0 486 1 487 47 -51 c26
-27 62 -78 80 -111z"/>
<path d="M2520 4543 c-221 -37 -412 -225 -492 -483 l-23 -75 -3 -1150 c-2
-842 0 -1170 8 -1225 48 -306 263 -545 525 -582 184 -26 381 62 502 225 62 84
119 206 139 300 l17 77 34 0 c64 0 188 31 258 65 85 41 169 110 230 189 185
240 206 590 49 847 l-34 57 35 58 c173 288 129 668 -106 903 -111 112 -246
176 -395 188 l-71 6 -12 61 c-31 149 -112 297 -220 399 -123 116 -282 167
-441 140z m195 -204 c65 -24 154 -101 200 -174 18 -27 44 -83 59 -123 l26 -73
0 -345 0 -344 -152 0 -153 0 -17 31 c-40 69 -163 87 -228 32 -86 -72 -80 -188
13 -257 44 -32 133 -29 180 7 20 15 39 36 42 47 6 19 15 20 221 20 l214 0 0
294 0 293 40 7 c113 18 267 -40 364 -138 106 -106 157 -231 157 -386 0 -151
-49 -275 -153 -384 l-57 -60 61 -65 c38 -40 73 -91 94 -135 57 -125 62 -116
-60 -116 l-106 0 0 378 0 377 31 17 c43 25 73 97 64 156 -13 87 -99 145 -190
128 -66 -13 -125 -85 -125 -153 1 -45 36 -112 70 -131 l30 -17 0 -377 0 -378
-372 0 -371 0 -34 40 c-56 65 -135 76 -210 30 -86 -52 -88 -210 -2 -258 l29
-17 0 -485 0 -484 -40 39 c-46 45 -110 163 -136 250 -16 53 -18 121 -21 603
l-4 542 348 0 349 0 23 -31 c51 -69 135 -88 212 -48 99 50 104 202 9 267 -67
45 -185 22 -220 -43 l-13 -25 -354 0 -353 0 0 400 0 400 122 0 121 0 34 -39
c118 -139 335 -12 268 157 -44 110 -186 133 -266 43 l-37 -41 -122 0 -123 0 7
80 c22 244 141 434 312 495 58 21 154 18 219 -6z m115 -2053 c0 -57 -3 -65
-25 -80 -91 -59 -86 -209 7 -266 47 -28 125 -27 169 3 92 61 92 212 -1 265
-28 16 -30 21 -30 80 l0 62 366 0 367 0 -5 -67 c-12 -157 -104 -309 -238 -395
-103 -66 -252 -86 -368 -49 l-60 18 0 -101 c-1 -58 -8 -126 -17 -161 -57 -218
-207 -371 -374 -382 -36 -3 -78 0 -93 6 l-28 11 0 509 0 510 48 50 47 49 118
1 117 1 0 -64z"/>
<path d="M2523 720 c-20 -8 -23 -17 -23 -64 0 -83 3 -86 74 -86 35 0 67 5 74
12 7 7 12 38 12 70 0 54 -2 59 -26 68 -31 12 -81 12 -111 0z"/>
<path d="M390 345 l0 -346 358 3 c328 3 360 5 388 22 43 26 56 51 62 122 6 86
-5 149 -33 182 l-24 27 22 23 c18 20 22 38 25 110 4 107 -13 147 -73 177 -37
19 -64 20 -382 23 l-343 4 0 -347z m634 189 c18 -18 21 -76 6 -105 -10 -18
-24 -19 -240 -19 l-230 0 0 70 0 70 224 0 c191 0 227 -2 240 -16z m7 -261 c6
-6 14 -31 16 -56 4 -36 1 -49 -16 -66 -20 -20 -30 -21 -246 -21 l-225 0 0 81
0 80 230 -3 c157 -2 233 -7 241 -15z"/>
<path d="M1475 544 c-106 -23 -156 -58 -175 -125 -6 -18 -10 -121 -10 -226 l0
-193 74 0 74 0 3 185 c5 227 4 226 128 233 l81 5 0 63 0 64 -77 -1 c-43 -1
-87 -3 -98 -5z"/>
<path d="M2000 491 l0 -61 98 0 c110 0 128 -8 138 -57 l7 -33 -242 0 c-265 0
-294 -5 -328 -56 -14 -21 -18 -47 -18 -109 0 -93 12 -123 58 -151 29 -17 53
-19 297 -19 248 0 267 1 304 21 61 31 78 74 84 207 6 145 -8 213 -51 255 -47
45 -78 53 -219 59 l-128 6 0 -62z m237 -298 c-9 -79 -19 -83 -222 -83 -144 0
-176 3 -189 16 -18 18 -21 66 -6 95 10 18 23 19 217 19 l206 0 -6 -47z"/>
<path d="M2938 540 c-153 -24 -178 -77 -178 -377 l0 -163 80 0 80 0 0 164 c0
92 5 177 11 194 15 45 57 54 213 50 174 -4 166 6 166 -229 l0 -179 80 0 80 0
0 191 c0 120 -4 207 -12 232 -15 49 -54 89 -104 106 -48 15 -338 23 -416 11z"/>
<path d="M2500 265 l0 -265 80 0 80 0 0 265 0 265 -80 0 -80 0 0 -265z"/>
</g>
</svg>
